<?xml version="1.0" encoding="UTF-8"?>
<svg version="1.1" xmlns="http://www.w3.org/2000/svg" width="512" height="512">
<path d="M0 0 C5.28 0 10.56 0 16 0 C16.08636719 2.413125 16.17273438 4.82625 16.26171875 7.3125 C16.36259871 9.70924853 16.4708856 12.1055593 16.57983398 14.50195312 C16.65036316 16.13835801 16.71346754 17.77510371 16.76831055 19.41210938 C17.45077444 39.43105016 22.7268651 56.54417181 36 72 C36.49757812 72.59296875 36.99515625 73.1859375 37.5078125 73.796875 C50.21206029 87.71409117 68.61323887 93.86697796 87 95 C105.26341181 95.37094146 122.31736324 87.75035599 136 76 C136.59296875 75.50242187 137.1859375 75.00484375 137.796875 74.4921875 C154.07837714 59.62971536 158.27987605 38.77044839 159.3359375 17.65234375 C159.60347741 11.76948635 159.81361158 5.88594997 160 0 C165.28 0 170.56 0 176 0 C176.09083791 9.16309975 176.16402296 18.3258941 176.20724869 27.4893446 C176.22800844 31.74559114 176.25610982 36.00151021 176.30175781 40.25756836 C176.34563508 44.37490815 176.36922409 48.49193556 176.37950897 52.60949135 C176.38682606 54.17017844 176.40111157 55.73085096 176.42292023 57.29140282 C176.6348026 73.1004476 173.52874267 87.9754002 162.3125 99.84375 C160.42429005 101.69385996 158.5072718 103.51178347 156.59375 105.3359375 C144.82601482 117.42267755 144.85802861 132.2660872 144.79467773 148.13671875 C144.78508585 149.66497555 144.77507503 151.19322978 144.76467896 152.72148132 C144.73776565 156.85102458 144.71668306 160.98057911 144.69667697 165.11016083 C144.67473316 169.43299893 144.64738574 173.75580283 144.62062073 178.07861328 C144.57080692 186.25587495 144.52582636 194.43315571 144.48259836 202.61045456 C144.43312901 211.92366564 144.37824699 221.23684239 144.32291877 230.55002022 C144.20927249 249.69998176 144.10258798 268.84997625 144 288 C138.72 288 133.44 288 128 288 C127.970271 285.90531372 127.970271 285.90531372 127.93994141 283.76831055 C127.86336886 278.54418126 127.7747344 273.32031193 127.68261719 268.09643555 C127.64453948 265.8435584 127.60965126 263.59062484 127.578125 261.33764648 C127.53201043 258.08296664 127.47409623 254.82866817 127.4140625 251.57421875 C127.40251129 250.58105148 127.39096008 249.58788422 127.37905884 248.56462097 C127.13569277 236.80441539 125.8878419 225.74553112 117.109375 217.1484375 C105.53025603 207.89425974 91.01861161 208.16192605 76.8671875 209.23828125 C68.30925962 210.44516852 61.01347929 214.05456285 55.5625 220.875 C49.2232774 230.27638945 48.86513827 240.17074958 48.68359375 251.18359375 C48.66281265 252.23909927 48.64203156 253.2946048 48.62062073 254.38209534 C48.55555152 257.7338345 48.49643948 261.085648 48.4375 264.4375 C48.39427419 266.71810646 48.35065864 268.99870557 48.30664062 271.27929688 C48.19991411 276.85278957 48.098528 282.42635659 48 288 C42.72 288 37.44 288 32 288 C31.99191315 286.08479553 31.98382629 284.16959106 31.97549438 282.1963501 C31.89793826 264.12860109 31.81029045 246.06092574 31.71247292 227.99327469 C31.66244367 218.70500571 31.61599997 209.41674512 31.578125 200.12841797 C31.54508726 192.02862153 31.50519176 183.92889218 31.45720994 175.82916999 C31.43206158 171.54415947 31.41024649 167.25919278 31.39665604 162.97412872 C31.38372902 158.93251271 31.36156255 154.89104794 31.33261681 150.84951591 C31.32362347 149.37424554 31.31787034 147.89895087 31.31578636 146.42365456 C31.28190963 126.0657782 27.74882431 113.9279647 13.33203125 99.30859375 C4.60574598 89.97404194 -0.27170386 77.16389494 -0.22705078 64.48242188 C-0.22734283 63.77899658 -0.22763489 63.07557129 -0.22793579 62.35083008 C-0.22655732 60.05667195 -0.21106727 57.76285044 -0.1953125 55.46875 C-0.19157708 53.86592791 -0.18873261 52.26310352 -0.18673706 50.66027832 C-0.17914225 46.46485972 -0.15952997 42.26958209 -0.1373291 38.07421875 C-0.11678069 33.78387356 -0.1077162 29.49350534 -0.09765625 25.203125 C-0.07627968 16.80201179 -0.04113194 8.40103974 0 0 Z M58 139 C55.51957583 143.01013822 55.66617559 147.34422209 55.6875 151.9375 C55.67138672 152.62779297 55.65527344 153.31808594 55.63867188 154.02929688 C55.6341921 158.75546453 56.32196514 162.08505143 59 166 C62.37060777 167.67519436 65.13687031 168.25372366 68.87866211 168.2746582 C69.8199144 168.28419022 70.76116669 168.29372223 71.73094177 168.30354309 C72.73625443 168.30263168 73.74156708 168.30172028 74.77734375 168.30078125 C75.82144913 168.30506638 76.8655545 168.3093515 77.94129944 168.31376648 C80.1459989 168.31950083 82.35071728 168.32001664 84.55541992 168.31567383 C87.92204162 168.31251451 91.28778378 168.33598269 94.65429688 168.36132812 C96.79947806 168.36360132 98.9446616 168.36430452 101.08984375 168.36328125 C102.09313217 168.372491 103.09642059 168.38170074 104.13011169 168.39118958 C109.48803229 168.35585158 113.40417537 168.08754241 118 165 C120.48042417 160.98986178 120.33382441 156.65577791 120.3125 152.0625 C120.32861328 151.37220703 120.34472656 150.68191406 120.36132812 149.97070312 C120.3658079 145.24453547 119.67803486 141.91494857 117 138 C113.62939223 136.32480564 110.86312969 135.74627634 107.12133789 135.7253418 C106.1800856 135.71580978 105.23883331 135.70627777 104.26905823 135.69645691 C103.26374557 135.69736832 102.25843292 135.69827972 101.22265625 135.69921875 C99.65649818 135.69279106 99.65649818 135.69279106 98.05870056 135.68623352 C95.8540011 135.68049917 93.64928272 135.67998336 91.44458008 135.68432617 C88.07795838 135.68748549 84.71221622 135.66401731 81.34570312 135.63867188 C79.20052194 135.63639868 77.0553384 135.63569548 74.91015625 135.63671875 C73.90686783 135.627509 72.90357941 135.61829926 71.86988831 135.60881042 C66.51196771 135.64414842 62.59582463 135.91245759 58 139 Z " fill="#000000" transform="translate(152,88)"/>
<path d="M0 0 C36.96 0 73.92 0 112 0 C112 47.90966797 112 47.90966797 97.8125 63.31640625 C83.85343352 76.28269429 69.01769537 80.6494007 50.40625 80.3125 C44.055142 80.05041851 38.72422214 78.78475672 33 76 C32.03835937 75.54109375 31.07671875 75.0821875 30.0859375 74.609375 C16.22412451 67.51033331 7.45129076 56.62129149 2 42 C-1.85045397 28.52341109 0 14.01586403 0 0 Z " fill="#000000" transform="translate(184,88)"/>
<path d="M0 0 C15.84 0 31.68 0 48 0 C48.3125 15.4375 48.3125 15.4375 48.38793945 20.25170898 C48.47402689 32.7552498 48.47402689 32.7552498 54.25 43.4375 C60.92721685 47.23137321 67.36202001 47.3077216 74.8671875 47.30078125 C76.41842819 47.30720894 76.41842819 47.30720894 78.00100708 47.31376648 C80.18116527 47.31949027 82.36134255 47.32002448 84.54150391 47.31567383 C87.8574316 47.31251673 91.17246383 47.33598837 94.48828125 47.36132812 C96.61458222 47.36360176 98.74088556 47.36430432 100.8671875 47.36328125 C101.84871796 47.372491 102.83024841 47.38170074 103.84152222 47.39118958 C110.9666144 47.34386139 118.01339978 46.75686175 123.4375 41.75 C126.60437716 36.17629619 127.26158931 30.6440435 127.4140625 24.31640625 C127.44967285 23.03451416 127.4852832 21.75262207 127.52197266 20.43188477 C127.57297119 18.02153931 127.57297119 18.02153931 127.625 15.5625 C127.74875 10.426875 127.8725 5.29125 128 0 C143.84 0 159.68 0 176 0 C176 21.12 176 42.24 176 64 C117.92 64 59.84 64 0 64 C0 42.88 0 21.76 0 0 Z " fill="#000000" transform="translate(152,424)"/>
<path d="M0 0 C47.52 0 95.04 0 144 0 C144 15.84 144 31.68 144 48 C96.48 48 48.96 48 0 48 C0 32.16 0 16.32 0 0 Z " fill="#000000" transform="translate(344,424)"/>
<path d="M0 0 C36.96 0 73.92 0 112 0 C112 15.84 112 31.68 112 48 C75.04 48 38.08 48 0 48 C0 32.16 0 16.32 0 0 Z " fill="#000000" transform="translate(24,424)"/>
<path d="M0 0 C1.07204178 0.00565979 2.14408356 0.01131958 3.24861145 0.01715088 C6.63106313 0.03931986 10.0124065 0.08947938 13.39453125 0.140625 C15.70506269 0.16071517 18.01561095 0.17896149 20.32617188 0.1953125 C25.95354396 0.23912072 31.58010052 0.30801153 37.20703125 0.390625 C37.20703125 5.670625 37.20703125 10.950625 37.20703125 16.390625 C36.04244385 16.41044434 34.87785645 16.43026367 33.67797852 16.45068359 C29.32230436 16.52724202 24.96694259 16.61587861 20.61157227 16.70800781 C18.73305466 16.74609132 16.85446925 16.78097866 14.97583008 16.8125 C12.26228739 16.85860213 9.54920333 16.91651785 6.8359375 16.9765625 C5.5931881 16.99388931 5.5931881 16.99388931 4.32533264 17.01156616 C-4.55934178 17.23219437 -12.66695167 18.22189111 -19.19921875 24.80859375 C-25.78700666 32.25815625 -25.94072459 40.45078197 -25.95118713 49.91976929 C-25.95612511 50.87227998 -25.96106309 51.82479068 -25.9661507 52.80616534 C-25.98149274 55.99365929 -25.98987741 59.18113314 -25.99829102 62.36865234 C-26.00787212 64.65522437 -26.01788234 66.94179463 -26.02828979 69.22836304 C-26.05531965 75.4344101 -26.07633964 81.64046475 -26.09629178 87.84653807 C-26.11816314 94.33281556 -26.14554621 100.81906971 -26.17234802 107.30532837 C-26.21658749 118.19166054 -26.25742536 129.0780006 -26.2956543 139.96435547 C-26.3350347 151.17595352 -26.376467 162.38754091 -26.4206543 173.59912109 C-26.42337857 174.29052773 -26.42610284 174.98193436 -26.42890967 175.69429271 C-26.44258957 179.16297357 -26.45630976 182.63165426 -26.47004998 186.10033488 C-26.58393618 214.86374244 -26.6906903 243.62717391 -26.79296875 272.390625 C-32.07296875 272.390625 -37.35296875 272.390625 -42.79296875 272.390625 C-42.88430092 241.87591307 -42.95504959 211.36123253 -42.99723007 180.84641648 C-43.00223265 177.24046558 -43.00740996 173.63451495 -43.01269531 170.02856445 C-43.01374455 169.31071171 -43.0147938 168.59285896 -43.01587483 167.8532531 C-43.03326036 156.24352731 -43.06478777 144.63388109 -43.10157993 133.02420243 C-43.13904103 121.10365346 -43.1612155 109.18314605 -43.16932273 97.26254064 C-43.17430946 90.57023559 -43.18676134 83.87812187 -43.21588898 77.18587303 C-43.2430987 70.88303421 -43.25140236 64.58044935 -43.24539948 58.27755737 C-43.24649721 55.96814404 -43.25441764 53.65872194 -43.26979065 51.34935951 C-43.36834467 35.77662642 -43.10910342 23.24455617 -31.79296875 11.390625 C-22.55820181 2.57482669 -12.55687959 -0.25539712 0 0 Z " fill="#000000" transform="translate(418.79296875,103.609375)"/>
<path d="M0 0 C10.56 0 21.12 0 32 0 C32.1546875 3.6815625 32.1546875 3.6815625 32.3125 7.4375 C32.88679792 18.29395872 32.88679792 18.29395872 38.25 27.4375 C43.84131267 30.6143822 49.53067832 31.36524195 55.875 31.3125 C56.57463867 31.30758545 57.27427734 31.3026709 57.99511719 31.29760742 C64.80308679 31.14374163 70.34562102 30.45019598 75.4375 25.75 C78.71397402 19.98340573 79.33941452 14.04366614 79.625 7.5625 C79.810625 3.8190625 79.810625 3.8190625 80 0 C90.56 0 101.12 0 112 0 C112 15.84 112 31.68 112 48 C75.04 48 38.08 48 0 48 C0 32.16 0 16.32 0 0 Z " fill="#000000" transform="translate(24,360)"/>
<path d="M0 0 C5.28 0 10.56 0 16 0 C16.103125 2.454375 16.20625 4.90875 16.3125 7.4375 C16.88679792 18.29395872 16.88679792 18.29395872 22.25 27.4375 C27.91570493 30.65665053 33.58620671 31.297062 39.99560547 31.2746582 C40.76245667 31.27976913 41.52930786 31.28488007 42.31939697 31.29014587 C44.83540823 31.30395991 47.351143 31.30309122 49.8671875 31.30078125 C51.62924296 31.30467287 53.39129749 31.30900849 55.15335083 31.31376648 C58.84005784 31.32121124 62.52666905 31.32095023 66.21337891 31.31567383 C70.91953517 31.30988357 75.62529731 31.32680791 80.33138847 31.3500185 C83.96898664 31.36480695 87.60649102 31.36562057 91.24411392 31.36250877 C92.97832138 31.36301949 94.71253443 31.36820989 96.44671249 31.37832069 C110.93611132 31.95905433 110.93611132 31.95905433 123.4375 25.75 C126.71397402 19.98340573 127.33941452 14.04366614 127.625 7.5625 C127.810625 3.8190625 127.810625 3.8190625 128 0 C133.28 0 138.56 0 144 0 C144 15.84 144 31.68 144 48 C96.48 48 48.96 48 0 48 C0 32.16 0 16.32 0 0 Z " fill="#000000" transform="translate(344,360)"/>
<path d="M0 0 C3.96 0 7.92 0 12 0 C12 10.56 12 21.12 12 32 C48.96 32 85.92 32 124 32 C124 21.44 124 10.88 124 0 C127.96 0 131.92 0 136 0 C147.35292424 11.35292424 140 31.94454056 140 48 C92.48 48 44.96 48 -4 48 C-4 4 -4 4 0 0 Z " fill="#000000" transform="translate(172,24)"/>
<path d="M0 0 C5.28 0 10.56 0 16 0 C16 26.4 16 52.8 16 80 C0.16 80 -15.68 80 -32 80 C-32 74.72 -32 69.44 -32 64 C-29.545625 63.896875 -27.09125 63.79375 -24.5625 63.6875 C-13.70604128 63.11320208 -13.70604128 63.11320208 -4.5625 57.75 C-0.73204178 51.00839353 -0.67230014 44.3961772 -0.5859375 36.81640625 C-0.56657135 35.76090073 -0.5472052 34.7053952 -0.5272522 33.61790466 C-0.46775447 30.2661838 -0.42119035 26.91442803 -0.375 23.5625 C-0.3367928 21.28188655 -0.29773949 19.00128711 -0.2578125 16.72070312 C-0.1620774 11.14724997 -0.07793653 5.5737293 0 0 Z " fill="#000000" transform="translate(312,328)"/>
<path d="M0 0 C5.28 0 10.56 0 16 0 C16.01458252 1.40693115 16.02916504 2.8138623 16.04418945 4.26342773 C16.10242818 9.51367839 16.17965923 14.76351161 16.26245117 20.01342773 C16.29558052 22.27996006 16.32364928 24.54657251 16.34643555 26.81323242 C16.38020235 30.08286488 16.43252972 33.35177098 16.48828125 36.62109375 C16.49467117 37.62458359 16.5010611 38.62807343 16.50764465 39.66197205 C16.65526352 46.82372161 17.21338062 53.98116234 22.25 59.4375 C28.01659427 62.71397402 33.95633386 63.33941452 40.4375 63.625 C44.1809375 63.810625 44.1809375 63.810625 48 64 C48 69.28 48 74.56 48 80 C32.16 80 16.32 80 0 80 C0 53.6 0 27.2 0 0 Z " fill="#000000" transform="translate(152,328)"/>
<path d="M0 0 C5.28 0 10.56 0 16 0 C16 36.96 16 73.92 16 112 C10.72 112 5.44 112 0 112 C0 75.04 0 38.08 0 0 Z " fill="#000000" transform="translate(72,264)"/>
<path d="M0 0 C26.4 0 52.8 0 80 0 C80 5.28 80 10.56 80 16 C53.6 16 27.2 16 0 16 C0 10.72 0 5.44 0 0 Z " fill="#000000" transform="translate(40,232)"/>
<path d="M0 0 C15.84 0 31.68 0 48 0 C48 5.28 48 10.56 48 16 C32.16 16 16.32 16 0 16 C0 10.72 0 5.44 0 0 Z " fill="#000000" transform="translate(216,440)"/>
<path d="M0 0 C15.84 0 31.68 0 48 0 C48 5.28 48 10.56 48 16 C32.16 16 16.32 16 0 16 C0 10.72 0 5.44 0 0 Z " fill="#000000" transform="translate(216,408)"/>
<path d="M0 0 C15.84 0 31.68 0 48 0 C48 5.28 48 10.56 48 16 C32.16 16 16.32 16 0 16 C0 10.72 0 5.44 0 0 Z " fill="#000000" transform="translate(216,376)"/>
<path d="M0 0 C15.84 0 31.68 0 48 0 C48 5.28 48 10.56 48 16 C32.16 16 16.32 16 0 16 C0 10.72 0 5.44 0 0 Z " fill="#000000" transform="translate(408,360)"/>
<path d="M0 0 C15.84 0 31.68 0 48 0 C48 5.28 48 10.56 48 16 C32.16 16 16.32 16 0 16 C0 10.72 0 5.44 0 0 Z " fill="#000000" transform="translate(216,344)"/>
<path d="M0 0 C15.84 0 31.68 0 48 0 C48 5.28 48 10.56 48 16 C32.16 16 16.32 16 0 16 C0 10.72 0 5.44 0 0 Z " fill="#000000" transform="translate(408,328)"/>
<path d="M0 0 C15.84 0 31.68 0 48 0 C48 5.28 48 10.56 48 16 C32.16 16 16.32 16 0 16 C0 10.72 0 5.44 0 0 Z " fill="#000000" transform="translate(408,296)"/>
<path d="M0 0 C15.84 0 31.68 0 48 0 C48 5.28 48 10.56 48 16 C32.16 16 16.32 16 0 16 C0 10.72 0 5.44 0 0 Z " fill="#000000" transform="translate(408,264)"/>
<path d="M0 0 C15.84 0 31.68 0 48 0 C48 5.28 48 10.56 48 16 C32.16 16 16.32 16 0 16 C0 10.72 0 5.44 0 0 Z " fill="#000000" transform="translate(408,232)"/>
<path d="M0 0 C15.84 0 31.68 0 48 0 C48 5.28 48 10.56 48 16 C32.16 16 16.32 16 0 16 C0 10.72 0 5.44 0 0 Z " fill="#000000" transform="translate(408,200)"/>
<path d="M0 0 C15.84 0 31.68 0 48 0 C48 5.28 48 10.56 48 16 C32.16 16 16.32 16 0 16 C0 10.72 0 5.44 0 0 Z " fill="#000000" transform="translate(408,168)"/>
<path d="M0 0 C5.28 0 10.56 0 16 0 C16 15.84 16 31.68 16 48 C10.72 48 5.44 48 0 48 C0 32.16 0 16.32 0 0 Z " fill="#000000" transform="translate(88,168)"/>
<path d="M0 0 C5.28 0 10.56 0 16 0 C16 15.84 16 31.68 16 48 C10.72 48 5.44 48 0 48 C0 32.16 0 16.32 0 0 Z " fill="#000000" transform="translate(56,168)"/>
<path d="M0 0 C0.77277283 0.00888245 1.54554565 0.01776489 2.34173584 0.0269165 C3.66265228 0.02736969 3.66265228 0.02736969 5.01025391 0.02783203 C6.42295563 0.05879974 6.42295563 0.05879974 7.86419678 0.09039307 C8.83516296 0.09605286 9.80612915 0.10171265 10.80651855 0.10754395 C13.90437347 0.12991495 17.00106711 0.18011334 20.09857178 0.23101807 C22.20011756 0.2510821 24.30168149 0.26933304 26.40325928 0.28570557 C31.55214347 0.32978226 36.70016081 0.39881548 41.84857178 0.48101807 C41.84857178 5.76101807 41.84857178 11.04101807 41.84857178 16.48101807 C26.00857178 16.48101807 10.16857178 16.48101807 -6.15142822 16.48101807 C-6.15142822 1.37534131 -6.15142822 1.37534131 0 0 Z " fill="#000000" transform="translate(414.15142822265625,135.51898193359375)"/>
<path d="M0 0 C5.28 0 10.56 0 16 0 C16 5.28 16 10.56 16 16 C10.72 16 5.44 16 0 16 C0 10.72 0 5.44 0 0 Z " fill="#000000" transform="translate(264,24)"/>
<path d="M0 0 C5.28 0 10.56 0 16 0 C16 5.28 16 10.56 16 16 C10.72 16 5.44 16 0 16 C0 10.72 0 5.44 0 0 Z " fill="#000000" transform="translate(232,24)"/>
<path d="M0 0 C5.28 0 10.56 0 16 0 C16 5.28 16 10.56 16 16 C10.72 16 5.44 16 0 16 C0 10.72 0 5.44 0 0 Z " fill="#000000" transform="translate(200,24)"/>
<path d="M0 0 C6.24601419 0 7.42788179 0.22303279 12 4 C15.77696721 8.57211821 16 9.75398581 16 16 C10.72 16 5.44 16 0 16 C0 10.72 0 5.44 0 0 Z " fill="#000000" transform="translate(248,312)"/>
<path d="M0 0 C0 5.28 0 10.56 0 16 C-5.28 16 -10.56 16 -16 16 C-16 9.75398581 -15.77696721 8.57211821 -12 4 C-7.42788179 0.22303279 -6.24601419 0 0 0 Z " fill="#000000" transform="translate(232,312)"/>
</svg>
