<?xml version="1.0" encoding="UTF-8"?>
<svg version="1.1" xmlns="http://www.w3.org/2000/svg" width="512" height="512">
<path d="M0 0 C-2.29604749 2.35399191 -4.70560126 4.53109618 -7.1875 6.6875 C-8.26064453 7.62142578 -8.26064453 7.62142578 -9.35546875 8.57421875 C-9.89816406 9.04472656 -10.44085938 9.51523438 -11 10 C-10.67 10.33 -10.34 10.66 -10 11 C-8.38218603 10.75582676 -6.77651741 10.43069716 -5.1796875 10.07421875 C-3.67510986 9.74599121 -3.67510986 9.74599121 -2.14013672 9.41113281 C-1.0626416 9.17233398 0.01485352 8.93353516 1.125 8.6875 C10.40149575 6.6958742 19.55158842 4.95147939 29 4 C30.05960937 3.88914063 31.11921875 3.77828125 32.2109375 3.6640625 C48.39096206 2.24206509 64.83269708 2.56971728 81 4 C81 4.66 81 5.32 81 6 C79.87464844 6.23783203 79.87464844 6.23783203 78.7265625 6.48046875 C71.53939051 8.1188543 65.45127485 10.46735087 59 14 C60.02488525 13.93071289 61.04977051 13.86142578 62.10571289 13.79003906 C72.55361557 13.11205497 82.9678584 12.75835815 93.4375 12.75 C94.21247833 12.74932526 94.98745667 12.74865051 95.78591919 12.74795532 C121.54363914 12.78320332 149.25226321 15.08370164 173 26 C173.33 26.66 173.66 27.32 174 28 C172.98421875 28.15855469 171.9684375 28.31710938 170.921875 28.48046875 C162.04193236 29.95504987 154.18067217 32.08009459 146 36 C146.59723877 36.11480713 147.19447754 36.22961426 147.80981445 36.34790039 C179.93672861 42.63567105 210.55166179 55.11750463 233 80 C233 80.66 233 81.32 233 82 C228.71 82 224.42 82 220 82 C220 82.66 220 83.32 220 84 C220.64195312 84.07347656 221.28390625 84.14695312 221.9453125 84.22265625 C226.27181462 85.32364592 229.94919085 87.34342093 233.875 89.4375 C234.7112793 89.88125977 235.54755859 90.32501953 236.40917969 90.78222656 C246.83368498 96.40884239 257.47979632 102.68760616 266 111 C266 111.66 266 112.32 266 113 C264.45935151 114.18278132 262.86399251 115.29444569 261.25 116.375 C242.73145165 129.65334453 229.20146239 149.39561283 222 171 C222.66644531 171.37769531 223.33289063 171.75539062 224.01953125 172.14453125 C242.17894219 182.98938226 252.65471223 199.06515796 258.19140625 219.2109375 C264.61467762 244.90129779 260.9701716 271.41261991 256 297 C255.87175842 297.66684814 255.74351685 298.33369629 255.61138916 299.02075195 C239.87514715 380.49574186 239.87514715 380.49574186 225.1015625 394.84375 C221.49430637 396.82841137 217.99638521 396.66250236 214 396 C211.12970131 394.20606332 209.50868362 393.01736724 208 390 C207.93715842 387.38916672 207.93289148 384.80498799 207.97265625 382.1953125 C207.98731961 380.57284046 208.00137497 378.95036285 208.01489258 377.32788086 C208.02324127 376.47773407 208.03158997 375.62758728 208.04019165 374.75167847 C208.39242857 333.27782938 200.5647816 299.81647281 177.54150391 265.04467773 C172.7672093 257.78083809 168.81542845 250.88513495 166.94799805 242.33862305 C166.76988083 241.52660934 166.59176361 240.71459564 166.4082489 239.87797546 C166.27352676 239.25824356 166.13880463 238.63851166 166 238 C164.79617676 238.13575439 163.59235352 238.27150879 162.35205078 238.41137695 C133.93677296 241.59873196 105.54537924 244.30912152 77 246 C75.80890625 246.07202637 74.6178125 246.14405273 73.390625 246.21826172 C7.3015726 250.01636732 -69.48718361 249.90133238 -131.4140625 223.8671875 C-137.80268598 221.21453763 -144.10515905 218.88395397 -151 218 C-150.94779297 219.36318359 -150.94779297 219.36318359 -150.89453125 220.75390625 C-150.52283373 238.01129116 -153.68412614 253.73543524 -165.25 267.1875 C-191.53091069 297.8560244 -195.93369842 339.50872101 -193.4375 378.375 C-193.36958252 379.18316162 -193.30166504 379.99132324 -193.23168945 380.82397461 C-192.9049481 385.09373295 -192.9033539 388.20774413 -195 392 C-197.83355021 394.99546736 -199.39127202 395.91303886 -203.5 396.5 C-207.8097782 395.8843174 -208.9563177 395.11317277 -212 392 C-213.84458021 388.62444185 -215.19504799 385.0909443 -216.5625 381.5 C-217.19442261 379.87336426 -217.19442261 379.87336426 -217.83911133 378.21386719 C-231.93669118 341.29469068 -245.83093013 301.1885106 -246.23828125 261.29296875 C-246.24816574 260.49369965 -246.25805023 259.69443054 -246.26823425 258.87094116 C-246.53926609 231.3099629 -245.68393292 206.19812225 -225.98828125 184.91015625 C-214.62449462 173.41050236 -198.40752338 165.2366897 -182.109375 164.92578125 C-181.08328125 164.95027344 -180.0571875 164.97476563 -179 165 C-179.01571045 164.44876465 -179.0314209 163.8975293 -179.04760742 163.32958984 C-179.98371459 125.0084432 -171.0833778 87.19062582 -145 58 C-143.75476563 56.54013672 -143.75476563 56.54013672 -142.484375 55.05078125 C-109.59460829 17.07572247 -49.15851057 -2.59234333 0 0 Z " fill="#414450" transform="translate(246,58)"/>
</svg>
