<?xml version="1.0" encoding="UTF-8"?>
<svg version="1.1" xmlns="http://www.w3.org/2000/svg" width="512" height="512">
<path d="M0 0 C6.89861217 4.11129412 12.23452023 10.22477727 14.4375 18 C14.65968339 22.0144498 14.61551886 25.98468571 14.4375 30 C27.41224627 28.01917216 27.41224627 28.01917216 39.4375 23 C40.19417969 22.56816406 40.95085937 22.13632813 41.73046875 21.69140625 C47.30824639 18.24383515 51.38740285 14.13099125 55.4375 9 C60.43849548 11.65848126 65.1420025 14.25876024 69.4375 18 C66.00825792 28.57349641 55.1605172 35.49001628 45.74609375 40.41015625 C41.72472061 42.34250438 37.77671868 43.95617205 33.4375 45 C32.71304687 45.185625 31.98859375 45.37125 31.2421875 45.5625 C27.35827822 46.16834657 23.54860989 46.10525518 19.625 46.0625 C18.83673828 46.05798828 18.04847656 46.05347656 17.23632812 46.04882812 C15.30335239 46.03711312 13.37041607 46.01917998 11.4375 46 C11.28607544 47.01139038 11.28607544 47.01139038 11.1315918 48.04321289 C10.2804077 51.66920325 8.85574927 54.92792662 7.33203125 58.30859375 C6.85859535 59.37447975 6.85859535 59.37447975 6.37559509 60.4618988 C5.33940876 62.78968248 4.29525706 65.11377662 3.25 67.4375 C2.52306276 69.06068759 1.7961753 70.68389748 1.06933594 72.30712891 C-1.13004896 77.20985239 -3.34425093 82.10578815 -5.5625 87 C-5.88873352 87.72096863 -6.21496704 88.44193726 -6.55108643 89.18475342 C-13.79966761 105.19377208 -21.35691054 120.93297911 -30.01318359 136.24121094 C-31.6646058 139.18181461 -33.28148975 142.13974473 -34.89453125 145.1015625 C-42.25923711 158.55527219 -50.17633305 171.49517406 -58.71435547 184.234375 C-60.5349237 186.95873391 -62.33460782 189.69578427 -64.12890625 192.4375 C-83.30763479 221.64990313 -105.06004823 249.14730305 -128.5625 275 C-129.325625 275.8559375 -130.08875 276.711875 -130.875 277.59375 C-134.77227527 281.96501821 -138.72792531 286.21014485 -142.90625 290.3125 C-144.58512834 292.02305529 -146.13543135 293.79903688 -147.6875 295.625 C-154.7523151 303.80615158 -162.56914172 311.46589234 -170.8046875 318.4609375 C-172.64177024 320.0694055 -174.35157787 321.75838868 -176.0625 323.5 C-179.72530049 327.2119656 -183.60314892 330.60900738 -187.5625 334 C-188.64082695 334.93075566 -189.71893466 335.86176537 -190.796875 336.79296875 C-197.9631302 342.97293269 -205.18246503 349.07547192 -212.5625 355 C-213.06652344 355.40508789 -213.57054687 355.81017578 -214.08984375 356.22753906 C-224.35682657 364.45493177 -234.92757631 372.25691616 -245.5625 380 C-246.33174805 380.56009766 -247.10099609 381.12019531 -247.89355469 381.69726562 C-253.10255745 385.48441757 -258.32789215 389.2483393 -263.5625 393 C-264.31370117 393.53963379 -265.06490234 394.07926758 -265.83886719 394.63525391 C-293.71837894 414.63369493 -293.71837894 414.63369493 -308.9375 414.4375 C-310.18249268 414.42614014 -310.18249268 414.42614014 -311.45263672 414.41455078 C-322.06339867 414.13068544 -330.24289274 410.50068172 -338.5625 404 C-339.17867188 403.52175781 -339.79484375 403.04351562 -340.4296875 402.55078125 C-347.1780172 396.59725482 -353.0108245 385.87958369 -353.73950195 376.79272461 C-354.15401485 360.62341857 -352.83267505 348.50886223 -341.75 335.9453125 C-337.6382542 331.68435012 -333.17449441 327.96452017 -328.515625 324.3203125 C-324.91049125 321.48770741 -321.36329483 318.58770304 -317.8125 315.6875 C-312.70914737 311.52696913 -307.57011044 307.42026517 -302.375 303.375 C-297.29178415 299.41367137 -292.35077087 295.31594742 -287.45629883 291.12451172 C-283.56965029 287.81159253 -279.59480432 284.63345388 -275.5625 281.5 C-270.34812887 277.44606294 -265.26377339 273.26938731 -260.24169922 268.97998047 C-256.92611009 266.14856621 -253.57678884 263.36847162 -250.1875 260.625 C-239.65609631 252.03761996 -229.49848954 243.03958938 -219.55859375 233.77734375 C-216.84395493 231.2501009 -214.08441632 228.77690018 -211.3125 226.3125 C-207.37786978 222.7917063 -203.63547538 219.1266663 -199.9609375 215.3359375 C-197.95434797 213.38163695 -195.91186851 211.55123906 -193.79296875 209.72265625 C-189.51491895 206.00797922 -185.49340648 202.07914648 -181.5 198.0625 C-180.83162109 197.39798828 -180.16324219 196.73347656 -179.47460938 196.04882812 C-175.53359293 192.10015178 -171.79877025 188.03343968 -168.15454102 183.81030273 C-166.06087715 181.4296069 -163.833394 179.21113363 -161.5625 177 C-158.03495353 173.5095856 -154.68865526 169.95355686 -151.46484375 166.18359375 C-149.55535302 163.99179638 -147.59184178 161.85615136 -145.61450195 159.72558594 C-140.77983314 154.51456566 -136.19259404 149.17787398 -131.734375 143.63671875 C-129.62493651 141.07579972 -127.43362352 138.62876545 -125.1875 136.1875 C-120.18757256 130.68671627 -115.64383618 124.86391009 -111.10302734 118.98632812 C-109.48073548 116.8945743 -107.84516452 114.81374211 -106.20703125 112.734375 C-90.94632085 93.32485247 -76.15490745 73.26426762 -63.5625 52 C-80.19038558 49.59253884 -96.79816893 48.07863375 -113.5625 47 C-113.51536865 48.14831299 -113.51536865 48.14831299 -113.46728516 49.31982422 C-113.34143072 52.83790721 -113.26416928 56.3555151 -113.1875 59.875 C-113.13722656 61.07898438 -113.08695312 62.28296875 -113.03515625 63.5234375 C-112.89980494 71.82498456 -114.13642689 77.55906755 -119.5625 84 C-127.11017867 90.66615987 -137.61804433 94.82570852 -147.75390625 94.41015625 C-149.5625 94 -149.5625 94 -151.5 91.9375 C-153.3232778 89.79795646 -153.3232778 89.79795646 -155.47241211 89.93505859 C-162.79915748 90.78885072 -169.96464062 92.20605622 -177.1875 93.6875 C-235.22537922 105.28813149 -294.39135977 110.59662127 -353.53735352 110.44604492 C-358.3928973 110.43425861 -363.24774528 110.45533265 -368.10319805 110.48396206 C-371.9148461 110.50228502 -375.72632292 110.50204487 -379.53800392 110.49632454 C-381.33165314 110.49617256 -383.12531486 110.50211352 -384.91892052 110.51461601 C-387.39652551 110.52954542 -389.87277849 110.51885635 -392.3503418 110.50170898 C-393.42613747 110.51621094 -393.42613747 110.51621094 -394.52366638 110.53100586 C-400.89156396 110.43903349 -406.01604975 108.23147121 -410.8046875 104.03515625 C-411.34351563 103.38417969 -411.88234375 102.73320312 -412.4375 102.0625 C-412.99179687 101.41410156 -413.54609375 100.76570313 -414.1171875 100.09765625 C-417.36523457 95.38359874 -417.80450278 91.40333749 -417.7578125 85.73046875 C-417.75356766 84.70896477 -417.75356766 84.70896477 -417.74923706 83.66682434 C-417.73810525 81.50686545 -417.71301457 79.34733206 -417.6875 77.1875 C-417.67746111 75.71680289 -417.66833685 74.24609924 -417.66015625 72.77539062 C-417.63818913 69.18345714 -417.6037082 65.59177015 -417.5625 62 C-418.51125 61.896875 -419.46 61.79375 -420.4375 61.6875 C-423.5625 61 -423.5625 61 -425.5625 58 C-425.97379973 53.44908945 -425.93410322 48.88875177 -425.93310547 44.3215332 C-425.93747839 42.0736107 -425.97380369 39.82765321 -426.01171875 37.58007812 C-426.01758737 36.1484442 -426.02155646 34.71680097 -426.0234375 33.28515625 C-426.03165527 31.98457275 -426.03987305 30.68398926 -426.04833984 29.34399414 C-425.5625 26 -425.5625 26 -424.0092926 23.8241272 C-420.71675119 21.36947929 -417.87865111 21.43372478 -413.92797852 21.4699707 C-412.77595271 21.45683114 -412.77595271 21.45683114 -411.60065365 21.44342613 C-409.04733184 21.41889167 -406.49483149 21.42239396 -403.94140625 21.42578125 C-402.14146657 21.41372774 -400.34153832 21.3998432 -398.54162598 21.38423157 C-394.72027242 21.35456805 -390.89912664 21.33685513 -387.07766724 21.32867432 C-381.11399193 21.3154458 -375.1507439 21.27364004 -369.18725586 21.22607422 C-362.34654948 21.17292752 -355.5058598 21.12419783 -348.6650629 21.08425522 C-295.55963536 20.77370784 -242.28917721 18.76552036 -189.6640625 11.1875 C-168.7845155 8.19400503 -148.19410955 5.3136586 -127.0625 5.375 C-126.26175049 5.37423462 -125.46100098 5.37346924 -124.63598633 5.37268066 C-104.4859793 5.43456772 -85.03261892 9.31628116 -65.4375 13.6875 C-62.61418262 14.31192924 -59.79040776 14.9341343 -56.96585083 15.55293274 C-55.23220211 15.93324757 -53.49930663 16.31701771 -51.76730347 16.70475769 C-48.64241512 17.39414854 -45.77320091 18 -42.5625 18 C-41.14154597 15.99928682 -41.14154597 15.99928682 -39.875 13.4375 C-31.77016464 -0.7259004 -15.35085795 -6.96910115 0 0 Z M-23.5625 19 C-25.20267012 21.43956197 -26.52955056 24.01397992 -27.875 26.625 C-37.36265169 44.33663995 -48.13725609 61.47254695 -59.5625 78 C-60.07458008 78.7434668 -60.58666016 79.48693359 -61.11425781 80.25292969 C-73.1983681 97.76255888 -85.63120082 114.92032119 -99.18603516 131.32373047 C-101.02861062 133.56763312 -102.82711681 135.84520998 -104.625 138.125 C-109.26757923 143.94525656 -114.14642217 149.56013208 -119.01123047 155.19433594 C-120.50810041 156.93667936 -121.99248748 158.688772 -123.47265625 160.4453125 C-129.96296015 168.12851782 -136.70788298 175.52317802 -143.62890625 182.8203125 C-145.7253216 185.03082588 -147.79517693 187.25775558 -149.83666992 189.51928711 C-157.72660246 198.25696691 -165.99915313 206.58908462 -174.33374023 214.90161133 C-176.7594663 217.32194526 -179.17975798 219.7476222 -181.59960938 222.17382812 C-183.16374175 223.73730012 -184.72818406 225.30046212 -186.29296875 226.86328125 C-187.00462692 227.57696365 -187.7162851 228.29064606 -188.44950867 229.0259552 C-192.42318176 232.981333 -196.48886676 236.76857996 -200.7442627 240.4198761 C-203.87696152 243.14232178 -206.86327048 246.02036934 -209.875 248.875 C-215.09851502 253.79167008 -220.4147919 258.44695705 -226.01953125 262.92578125 C-228.61261347 265.04087596 -231.090349 267.24518096 -233.5625 269.5 C-238.73437794 274.20616382 -244.1245997 278.60666812 -249.5625 283 C-251.29259526 284.41553248 -253.02175055 285.83221453 -254.75 287.25 C-256.68706379 288.83386697 -258.62461036 290.41714358 -260.5625 292 C-261.16223633 292.49016602 -261.76197266 292.98033203 -262.37988281 293.48535156 C-269.45378172 299.2633777 -276.54415807 305.01202839 -283.75 310.625 C-288.83314136 314.58642857 -293.77422448 318.6840486 -298.66870117 322.87548828 C-302.55541103 326.18845974 -306.53115098 329.36524884 -310.5625 332.5 C-328.99501292 345.75813958 -328.99501292 345.75813958 -337.40234375 365.9140625 C-337.871482 374.9535557 -335.58411042 382.19756538 -329.5625 389 C-323.42647843 394.59566742 -317.03375348 398 -308.5625 398 C-297.73602517 397.2149988 -290.16692223 390.99629493 -281.82861328 384.70117188 C-278.80471594 382.43113129 -275.73628332 380.22594535 -272.6652832 378.02026367 C-270.3895837 376.38547645 -268.12005822 374.74242059 -265.8515625 373.09765625 C-262.57665926 370.72725705 -259.28641202 368.37989633 -255.98706055 366.04370117 C-249.27164522 361.2839205 -242.70494392 356.36030775 -236.21875 351.29296875 C-234.513684 349.96189128 -232.80386821 348.63707817 -231.09375 347.3125 C-223.65513634 341.53149315 -216.3938564 335.57511766 -209.24511719 329.43994141 C-207.46347832 327.91525974 -205.6737659 326.40044495 -203.8828125 324.88671875 C-195.80358246 318.04179002 -195.80358246 318.04179002 -188.22094727 310.6574707 C-186.64473224 309.08218382 -185.01591886 307.66506472 -183.30859375 306.234375 C-177.09068642 300.82715866 -171.34051951 294.92674369 -165.52612305 289.09399414 C-163.50485732 287.0673702 -161.47830426 285.04614453 -159.45117188 283.02539062 C-153.2745681 276.85197233 -147.202559 270.67394968 -141.5625 264 C-139.94282183 262.22429779 -138.31838282 260.45291693 -136.6875 258.6875 C-132.24063523 253.80663191 -128.03821099 248.77624476 -123.89501953 243.63720703 C-122.38028396 241.77611932 -120.84578215 239.93242794 -119.30859375 238.08984375 C-77.06563414 187.38654174 -1.37453276 93.60840717 -2.16796875 25.30078125 C-2.72838156 20.61217905 -3.98545425 18.98087145 -7.5625 16 C-9.84797148 14.85726426 -11.33129905 14.76872743 -13.875 14.6875 C-14.63425781 14.65011719 -15.39351563 14.61273438 -16.17578125 14.57421875 C-19.61802764 15.18830199 -21.08367556 16.54072465 -23.5625 19 Z M-189.28146744 28.13634109 C-191.28006926 28.41137853 -193.2787057 28.68616344 -195.27734375 28.9609375 C-196.58461426 29.14082214 -197.89188477 29.32070679 -199.23876953 29.50604248 C-211.05107252 31.10991923 -222.87455051 32.35122196 -234.75 33.375 C-235.57050842 33.44795288 -236.39101685 33.52090576 -237.23638916 33.59606934 C-242.32869115 34.04477707 -247.42314235 34.43418778 -252.52297974 34.7868042 C-254.64346702 34.93553786 -256.76346026 35.0914128 -258.88302612 35.25274658 C-287.91318037 37.42900291 -316.98702163 37.42799496 -346.08392328 37.58943689 C-353.02532829 37.62830271 -359.96664978 37.67755223 -366.90798318 37.72740483 C-381.12609201 37.82930018 -395.34425746 37.91899842 -409.5625 38 C-409.5625 40.64 -409.5625 43.28 -409.5625 46 C-398.53606155 46.02362361 -387.50962952 46.04116068 -376.48317051 46.05181217 C-371.35799298 46.05693546 -366.23283328 46.06382914 -361.10766602 46.07543945 C-308.89245833 46.22968755 -308.89245833 46.22968755 -256.75 43.75 C-255.42835846 43.65629623 -255.42835846 43.65629623 -254.08001709 43.56069946 C-224.15398695 41.42143145 -194.36865601 37.98453208 -164.80126953 32.87963867 C-147.44020589 29.91749806 -147.44020589 29.91749806 -141.5625 31 C-139.63308014 32.53135201 -138.68093955 33.44175996 -138.16377258 35.87931824 C-138.15266953 36.58325211 -138.14156647 37.28718597 -138.13012695 38.01245117 C-138.11033279 38.81305466 -138.09053864 39.61365814 -138.07014465 40.43852234 C-138.06055977 41.72772331 -138.06055977 41.72772331 -138.05078125 43.04296875 C-138.02385445 44.36836418 -138.02385445 44.36836418 -137.99638367 45.72053528 C-137.94220004 48.5428083 -137.90835939 51.36491144 -137.875 54.1875 C-137.84183401 56.10093514 -137.80734502 58.01434784 -137.77148438 59.92773438 C-137.68646901 64.61836715 -137.61969638 69.30894884 -137.5625 74 C-134.64732708 72.92598892 -132.78439824 72.22189824 -130.5625 70 C-129.22220166 66.34225843 -129.40362917 62.57040457 -129.3515625 58.71484375 C-129.32351216 57.28319133 -129.29484784 55.85155084 -129.265625 54.41992188 C-129.22427093 52.17277128 -129.187364 49.92584789 -129.16113281 47.6784668 C-129.13356353 45.50263233 -129.08772074 43.327795 -129.0390625 41.15234375 C-129.01924316 39.85288818 -128.99942383 38.55343262 -128.97900391 37.21459961 C-128.5625 34 -128.5625 34 -127.39086914 32.08007812 C-123.08742835 29.53789331 -117.21489352 30.52565188 -112.375 30.5625 C-111.7201059 30.5638797 -111.06521179 30.5652594 -110.39047241 30.56668091 C-95.75412592 30.62310476 -81.45279007 32.46973808 -66.98681641 34.54248047 C-62.19073402 35.1832803 -57.38596559 35.62588944 -52.5625 36 C-52.5625 35.34 -52.5625 34.68 -52.5625 34 C-58.26761187 32.74708551 -63.97443123 31.50235699 -69.68286133 30.26464844 C-71.61790157 29.84395261 -73.55248738 29.4211601 -75.48657227 28.99609375 C-92.34933172 25.29248846 -108.80939196 22.49476793 -126.125 22.375 C-127.3264566 22.36515076 -127.3264566 22.36515076 -128.55218506 22.35510254 C-148.98146481 22.30292801 -169.09073562 25.35752965 -189.28146744 28.13634109 Z M-163.42578125 49.171875 C-221.09851195 57.92986758 -278.27278447 61.4397068 -336.58571589 61.66146368 C-343.69663177 61.68906392 -350.80742446 61.7329714 -357.91824973 61.77772844 C-372.46625926 61.86895775 -387.01432141 61.94134955 -401.5625 62 C-401.65001413 65.87485635 -401.70306435 69.74945643 -401.75 73.625 C-401.77513672 74.71941406 -401.80027344 75.81382813 -401.82617188 76.94140625 C-401.92942856 84.89978259 -401.92942856 84.89978259 -398.5625 92 C-394.50463012 94.53015315 -390.12182336 94.27480236 -385.4765625 94.23046875 C-384.28220581 94.23052917 -384.28220581 94.23052917 -383.0637207 94.23059082 C-380.4381506 94.22717573 -377.81298732 94.20817196 -375.1875 94.1875 C-373.33512471 94.17857956 -371.48274837 94.16987521 -369.63037109 94.16137695 C-363.94079846 94.12892342 -358.25173951 94.06854505 -352.5625 94 C-351.71236328 93.99033203 -350.86222656 93.98066406 -349.98632812 93.97070312 C-249.27575678 95.22686268 -249.27575678 95.22686268 -153.5625 71 C-153.5625 63.41 -153.5625 55.82 -153.5625 48 C-156.88541126 48 -160.14748219 48.66644292 -163.42578125 49.171875 Z " fill="#000000" transform="translate(433.5625,50)"/>
<path d="M0 0 C5.82485779 3.51996782 10.54466582 8.98962934 12.5625 15.5 C13.36764105 23.33608208 13.68710392 31.11922577 8.5625 37.5 C3.75801361 42.54521222 -0.59927055 46.10562995 -7.70703125 46.8359375 C-16.22326573 46.92983204 -22.11345494 46.6177288 -28.40234375 40.62890625 C-34.7841668 33.72505269 -35.91792252 28.29832071 -35.7421875 18.9453125 C-35.04689797 11.08319245 -31.38995981 6.95041296 -25.53515625 1.9453125 C-18.47077988 -2.92213491 -7.84396301 -3.47595223 0 0 Z M-16.8125 17.125 C-18.92456506 20.21186432 -19.04945145 21.8282913 -18.4375 25.5 C-16.9375 28 -16.9375 28 -14.4375 29.5 C-10.7657913 30.11195145 -9.14936432 29.98706506 -6.0625 27.875 C-3.95043494 24.78813568 -3.82554855 23.1717087 -4.4375 19.5 C-5.9375 17 -5.9375 17 -8.4375 15.5 C-12.1092087 14.88804855 -13.72563568 15.01293494 -16.8125 17.125 Z " fill="#000000" transform="translate(139.4375,393.5)"/>
<path d="M0 0 C5.28 0 10.56 0 16 0 C16 5.28 16 10.56 16 16 C10.72 16 5.44 16 0 16 C0 10.72 0 5.44 0 0 Z " fill="#000000" transform="translate(408,80)"/>
</svg>
