<?xml version="1.0" encoding="UTF-8"?>
<svg version="1.1" xmlns="http://www.w3.org/2000/svg" width="512" height="512">
<path d="M0 0 C3.43021925 2.90328798 6.73911959 5.90824143 10 9 C10.78503906 9.74378906 11.57007813 10.48757812 12.37890625 11.25390625 C26.68295358 25.17070356 26.68295358 25.17070356 27.24609375 33.74853516 C27.18249337 38.04070492 25.95236885 41.14674223 24.0625 45.0234375 C23.75115616 45.67372925 23.43981232 46.324021 23.11903381 46.99401855 C22.09345841 49.12815517 21.04674472 51.25117785 20 53.375 C19.26845785 54.88869271 18.53858869 56.40319497 17.81030273 57.91845703 C16.29778343 61.06208577 14.77815606 64.20212438 13.25341797 67.33984375 C10.12248728 73.79675055 7.0807774 80.29514817 4.03771973 86.79379272 C2.40052217 90.28772067 0.75696338 93.77865031 -0.88671875 97.26953125 C-1.21656769 97.97024246 -1.54641663 98.67095367 -1.88626099 99.39289856 C-4.46674139 104.87266116 -7.05470957 110.34886583 -9.64453125 115.82421875 C-10.03064072 116.64077942 -10.41675018 117.45734009 -10.81455994 118.29864502 C-12.68098531 122.2457735 -14.54838956 126.19243227 -16.41772461 130.13818359 C-19.6924114 137.05762462 -22.93754232 143.98318332 -26 151 C-25.35575073 151.72074707 -25.35575073 151.72074707 -24.69848633 152.45605469 C-20.22930342 157.57730936 -19.11677707 162.24281636 -17.84765625 168.81640625 C-16.76010832 172.90097568 -14.82204919 175.66202908 -12.359375 179.0390625 C-7.49332579 186.05847832 -7.42734689 196.5537909 -8.48046875 204.73046875 C-10.41098136 213.7667179 -13.92986076 221.40996286 -18.4699707 229.44189453 C-22.24572832 236.12874337 -24.80061661 242.12727002 -24 250 C-21.76008756 257.118551 -18.27468462 263.06214285 -14 269.125 C-6.34197504 280.10023874 -0.44553639 290.15442877 -2 304 C-3.05314056 306.99458228 -4.32389566 309.27633044 -6 312 C-5.0925 312.639375 -4.185 313.27875 -3.25 313.9375 C1.18176698 317.65514339 3.34327885 322.43494232 4.3828125 328.078125 C4.70088464 333.46414651 2.990391 337.66300436 0 342 C-5.28519883 347.52543514 -11.10733982 349.02319656 -18.52340698 349.2515564 C-20.19118599 349.26276193 -21.85905845 349.26346302 -23.52685547 349.25537109 C-24.9043824 349.26080177 -24.9043824 349.26080177 -26.30973816 349.26634216 C-28.29303881 349.27320379 -30.2763582 349.2757477 -32.25967026 349.27439499 C-35.41584538 349.27342251 -38.57168658 349.28646059 -41.72781372 349.30337524 C-50.69807304 349.34940512 -59.6682984 349.37420588 -68.63867188 349.38085938 C-74.13995739 349.38592168 -79.64089591 349.41041281 -85.14206314 349.44618607 C-87.22047958 349.45588043 -89.29894441 349.45837374 -91.37737656 349.45301437 C-108.13583399 349.41185619 -123.93527363 350.72777597 -139.125 358.4375 C-165.50067518 371.01096133 -195.3034465 374.81379371 -223.32470703 365.20263672 C-243.20009606 358.0513819 -264.56419707 346.21661787 -273.9375 326.375 C-277.14798415 316.40028823 -275.70993738 305.70852387 -271.2890625 296.453125 C-270.49733818 294.94644963 -269.6753472 293.45466818 -268.8046875 291.9921875 C-267.74765468 289.3752616 -268.07917458 287.65082921 -268.5 284.875 C-269.40240835 276.61026011 -268.16359547 269.74183954 -263.49609375 262.7890625 C-261.93404062 260.92112429 -260.31274945 259.59162644 -258.375 258.125 C-255.33707965 255.72322537 -254.49126587 254.00772088 -253.625 250.25 C-251.65716799 242.44895169 -246.40417774 237.17590811 -239.73046875 232.91015625 C-238.60253906 232.25917969 -237.47460938 231.60820312 -236.3125 230.9375 C-230.24713372 227.40817537 -227.23535355 224.14135974 -224 218 C-213.73866688 199.17896187 -200.3255073 188.51069602 -181 180 C-178.01953125 179.2734375 -178.01953125 179.2734375 -176 179 C-176.03480469 179.83402344 -176.06960937 180.66804687 -176.10546875 181.52734375 C-176.55200672 192.79563362 -176.55200672 192.79563362 -171.60473633 202.54003906 C-166.99841479 206.49045973 -162.18720913 209.16308637 -156.75 211.8125 C-141.39259415 219.62267745 -130.09871187 229.46458038 -124 246 C-123.1875 249.6875 -123.1875 249.6875 -123 252 C-122.34 252 -121.68 252 -121 252 C-120.68915015 241.74195488 -124.25290883 234.76303113 -128.95117188 226.01367188 C-130.59236676 222.86269995 -132.03322694 219.63713292 -133.4375 216.375 C-133.91058594 215.28960937 -134.38367188 214.20421875 -134.87109375 213.0859375 C-138.6034403 202.88332928 -138.58197534 189.92479529 -134 180 C-132.51723598 177.71061236 -130.943051 175.50772492 -129.3515625 173.29296875 C-127.45196705 170.07024469 -126.98755315 166.9529978 -126.42578125 163.29296875 C-125.71824172 159.48264116 -123.92129459 156.34197542 -121.74780273 153.17602539 C-120.72208863 150.93142424 -120.72208863 150.93142424 -121.92602539 148.43920898 C-122.72254517 147.01330444 -122.72254517 147.01330444 -123.53515625 145.55859375 C-126.92571936 139.20020949 -129.70617404 132.72594612 -132.4375 126.0625 C-140.09663098 107.54428818 -148.1299915 89.18793895 -156.12876892 70.81465149 C-157.52616127 67.60230454 -158.92044301 64.38862054 -160.31445312 61.17480469 C-162.08448958 57.09571162 -163.87106297 53.02446577 -165.66992188 48.95800781 C-166.49362741 47.07883645 -167.31720195 45.19960766 -168.140625 43.3203125 C-168.70701691 42.05524368 -168.70701691 42.05524368 -169.28485107 40.76461792 C-171.80385065 34.98257971 -173.81198882 29.84840522 -172.015625 23.546875 C-169.79352069 19.04748998 -166.31167457 15.71459171 -162.75 12.25 C-162.04053223 11.55261719 -161.33106445 10.85523438 -160.60009766 10.13671875 C-153.89479457 3.67678604 -146.79576354 -1.92177375 -139 -7 C-138.42572266 -7.37592285 -137.85144531 -7.7518457 -137.25976562 -8.13916016 C-96.62045586 -34.21643675 -37.47088853 -30.08691932 0 0 Z M-108 -11 C-108.95108643 -10.68651611 -108.95108643 -10.68651611 -109.92138672 -10.36669922 C-124.52827917 -5.40355302 -137.60036738 2.64520375 -149 13 C-149.91338135 13.82371094 -149.91338135 13.82371094 -150.84521484 14.6640625 C-152.83768959 16.48103429 -154.79723859 18.32797129 -156.75 20.1875 C-157.38365479 20.76975342 -158.01730957 21.35200684 -158.67016602 21.9519043 C-159.24822998 22.51820557 -159.82629395 23.08450684 -160.421875 23.66796875 C-160.94362305 24.16578857 -161.46537109 24.6636084 -162.00292969 25.17651367 C-163.56489606 28.03310692 -162.80698354 29.90773672 -162 33 C-161.11619071 35.29118512 -160.15794757 37.55432238 -159.1484375 39.79296875 C-158.85787979 40.44349213 -158.56732208 41.0940155 -158.26795959 41.76425171 C-157.63908655 43.17074051 -157.00717 44.57587166 -156.37252808 45.97976685 C-154.64871681 49.79491288 -152.94917203 53.62087809 -151.24609375 57.4453125 C-150.89303665 58.23654007 -150.53997955 59.02776764 -150.17622375 59.8429718 C-146.51933199 68.04981722 -142.96745402 76.30041773 -139.4375 84.5625 C-139.13143829 85.27810089 -138.82537659 85.99370178 -138.51004028 86.73098755 C-133.16658119 99.22706413 -127.85705064 111.73768286 -122.56616211 124.25610352 C-118.8477212 135.3376582 -118.8477212 135.3376582 -113 145 C-111.36743242 145.15714654 -109.72864662 145.25085414 -108.08984375 145.31640625 C-107.10048828 145.35830078 -106.11113281 145.40019531 -105.09179688 145.44335938 C-104.05087891 145.48267578 -103.00996094 145.52199219 -101.9375 145.5625 C-100.37032227 145.62727539 -100.37032227 145.62727539 -98.77148438 145.69335938 C-96.18113116 145.79981225 -93.59067814 145.9018276 -91 146 C-92.34282378 135.48437925 -93.91026475 125.02312839 -95.625 114.5625 C-95.85696632 113.1374016 -96.08873793 111.71227149 -96.3203125 110.28710938 C-96.87797826 106.85770674 -97.43822841 103.42873276 -98 100 C-96.35 100 -94.7 100 -93 100 C-92.82871582 101.0737085 -92.65743164 102.14741699 -92.48095703 103.25366211 C-91.83884588 107.27412442 -91.19313395 111.2940018 -90.54638672 115.3137207 C-90.268075 117.04663844 -89.99071282 118.77970897 -89.71435547 120.51293945 C-89.31473225 123.01815865 -88.911587 125.52279069 -88.5078125 128.02734375 C-88.3868924 128.79022202 -88.26597229 129.55310028 -88.14138794 130.33909607 C-87.28683327 135.61064318 -86.1967649 140.79520169 -85 146 C-81.7 146 -78.4 146 -75 146 C-75 128.18 -75 110.36 -75 92 C-73.02 92.495 -73.02 92.495 -71 93 C-70.97494385 94.11334717 -70.9498877 95.22669434 -70.92407227 96.3737793 C-70.82880152 100.56543495 -70.72888992 104.75697009 -70.62768555 108.94848633 C-70.58478312 110.75119172 -70.54308406 112.55392621 -70.50268555 114.35668945 C-70.27220663 124.60304228 -69.95386487 134.79071995 -69 145 C-66.36 145 -63.72 145 -61 145 C-58.61188094 135.11432277 -56.65356589 125.18621695 -54.8125 115.1875 C-54.53736737 113.70503022 -54.26197814 112.22260804 -53.98632812 110.74023438 C-53.32127136 107.16069795 -52.65964851 103.58053754 -52 100 C-50.68 100 -49.36 100 -48 100 C-48.71485408 109.12117615 -50.37691331 118.02121487 -52.0625 127 C-52.48521123 129.26584769 -52.90673638 131.53190322 -53.32627869 133.79833984 C-53.58577494 135.19878248 -53.84722523 136.59886478 -54.1108551 137.99853516 C-54.77433711 141.47591648 -54.77433711 141.47591648 -55 145 C-51.77206203 145.23329086 -48.54628768 145.37467674 -45.3125 145.5 C-44.40048828 145.56703125 -43.48847656 145.6340625 -42.54882812 145.703125 C-37.59626356 145.92237615 -37.59626356 145.92237615 -33.4375 143.60546875 C-32.04627272 141.47225358 -31.02297374 139.33275402 -30 137 C-29.575979 136.12923828 -29.15195801 135.25847656 -28.71508789 134.36132812 C-27.22082136 131.26116814 -25.79543338 128.13465573 -24.375 125 C-23.22570163 122.49397056 -22.0749724 119.98865359 -20.921875 117.484375 C-20.6146048 116.81613708 -20.30733459 116.14789917 -19.99075317 115.45941162 C-16.34309264 107.54397091 -12.59269619 99.67751716 -8.84423828 91.80944824 C-2.66256771 78.83276754 3.5131953 65.85306614 9.63604736 52.84851074 C10.28965521 51.4615858 10.94454019 50.07526192 11.60076904 48.6895752 C12.50032907 46.78945027 13.39530647 44.88723533 14.2890625 42.984375 C14.79131348 41.91928711 15.29356445 40.85419922 15.81103516 39.75683594 C17.23102285 36.46669098 17.23102285 36.46669098 18 33 C16.60447749 30.58611034 16.60447749 30.58611034 14.5 28.25 C13.75363281 27.36957031 13.00726563 26.48914063 12.23828125 25.58203125 C11.49964844 24.72996094 10.76101563 23.87789062 10 23 C9.43667969 22.30261719 8.87335938 21.60523438 8.29296875 20.88671875 C-8.91636449 -0.00733791 -35.93106781 -12.12830993 -62.5 -14.8125 C-77.93582758 -15.97018707 -93.23499583 -15.96734479 -108 -11 Z M-114.875 160.0625 C-116.16737851 161.91485781 -116.16737851 161.91485781 -116 164 C-87.29 164 -58.58 164 -29 164 C-31.91801274 159.13664543 -33.16819559 157.55938133 -38 155 C-41.34061704 154.40831253 -41.34061704 154.40831253 -44.91992188 154.49829102 C-45.58415665 154.49288803 -46.24839142 154.48748505 -46.93275452 154.48191833 C-49.11188363 154.4694882 -51.28967651 154.48588169 -53.46875 154.50390625 C-54.99279855 154.50375113 -56.5168475 154.50225994 -58.04089355 154.49949646 C-61.22844981 154.49811504 -64.41555471 154.51062678 -67.60302734 154.53344727 C-71.6784616 154.56183155 -75.75314646 154.55909134 -79.82863617 154.54635715 C-82.97375838 154.53938527 -86.11870892 154.54720638 -89.2638092 154.55961418 C-90.76603028 154.56411405 -92.26826988 154.56447833 -93.77049255 154.56054878 C-95.87406871 154.55762157 -97.97663054 154.57421325 -100.08007812 154.59594727 C-101.27443481 154.60135025 -102.4687915 154.60675323 -103.69934082 154.61231995 C-108.32158852 155.15522763 -111.72851114 156.60136225 -114.875 160.0625 Z M-122.98670959 179.90769958 C-123.32109543 180.59815872 -123.65548126 181.28861786 -124 182 C-124.51807472 183.02620201 -124.51807472 183.02620201 -125.0466156 184.07313538 C-129.26517501 193.24915676 -128.37124005 202.73989512 -125 212 C-122.84641968 216.84191791 -120.38120381 221.52710735 -117.921875 226.21875 C-112.24144236 237.1945012 -111.12603713 245.77462316 -113 258 C-112.16597656 258.61746094 -111.33195312 259.23492187 -110.47265625 259.87109375 C-96.66159139 270.20366389 -84.87892752 281.15064938 -82 299 C-81.80628574 301.07947018 -81.62759555 303.16037421 -81.4609375 305.2421875 C-81.37376465 306.32097168 -81.2865918 307.39975586 -81.19677734 308.51123047 C-81.13184082 309.33252441 -81.0669043 310.15381836 -81 311 C-73.03733963 311.18583351 -65.07559331 311.3277385 -57.11129665 311.41449738 C-53.41252691 311.45615089 -49.71524651 311.51258587 -46.01733398 311.60351562 C-42.44455035 311.69081292 -38.87319336 311.73834807 -35.29942513 311.75901794 C-33.94014085 311.77373534 -32.58092979 311.80247862 -31.22225761 311.84584045 C-23.48758004 312.23046929 -23.48758004 312.23046929 -16.60427856 309.28222656 C-13.82723525 306.21079344 -12.21269871 303.59331746 -10.8125 299.6875 C-11.33298694 289.45125691 -16.89351143 281.81415011 -22.5234375 273.6640625 C-29.73766743 263.15816872 -34.65472547 253.34475539 -33.44091797 240.35449219 C-32.15751087 233.5011267 -28.44897209 227.24778279 -25.16894531 221.16870117 C-24.00989718 219.01836187 -22.88523377 216.85486841 -21.78125 214.67578125 C-21.46736328 214.05872314 -21.15347656 213.44166504 -20.83007812 212.8059082 C-16.46049083 203.29948549 -17.0707778 193.36689261 -20.5390625 183.703125 C-24.0252198 177.24617613 -24.0252198 177.24617613 -29.94961357 173.34202766 C-32.23771759 173.08354132 -34.4375166 173.04209327 -36.73999023 173.07836914 C-37.59769012 173.06449661 -38.45539001 173.05062408 -39.33908081 173.03633118 C-42.16323276 173.00053867 -44.9843192 173.01592226 -47.80859375 173.03515625 C-49.77865884 173.02789682 -51.74871768 173.01870735 -53.71876526 173.00767517 C-57.84389603 172.99285834 -61.96796728 173.00381176 -66.09301758 173.0324707 C-71.37090529 173.06673874 -76.64583342 173.03342677 -81.92347622 172.98026371 C-85.99095736 172.94740386 -90.05773586 172.95235575 -94.12529182 172.9684124 C-96.07049659 172.97122669 -98.01575884 172.96195304 -99.96084404 172.94020271 C-113.21965531 172.23213692 -113.21965531 172.23213692 -122.98670959 179.90769958 Z M-204.5625 206.3515625 C-210.70182188 213.02217185 -216.43244427 221.32088846 -216.26953125 230.5625 C-215.50044509 237.51771393 -211.48945561 242.21047852 -206.21875 246.52734375 C-201.35357157 249.75652028 -195.7158453 251.07808947 -190 252 C-189.505 253.98 -189.505 253.98 -189 256 C-198.50547056 255.49327455 -206.18656011 254.3986894 -213.3984375 247.8125 C-216.25780566 244.57653214 -218.12442792 240.863538 -220 237 C-220.37511719 236.24976563 -220.75023437 235.49953125 -221.13671875 234.7265625 C-221.56404297 233.87191406 -221.56404297 233.87191406 -222 233 C-222.97839844 233.68835938 -222.97839844 233.68835938 -223.9765625 234.390625 C-224.85054687 235.00421875 -225.72453125 235.6178125 -226.625 236.25 C-227.53894531 236.89195312 -228.45289063 237.53390625 -229.39453125 238.1953125 C-231.34112819 239.54363002 -233.31940826 240.84641285 -235.3125 242.125 C-242.47492047 247.12203754 -244.20666424 251.67483967 -246 260 C-233.47609009 272.24783174 -218.9608763 281.21847636 -202 286 C-201.31421875 286.19464844 -200.6284375 286.38929688 -199.921875 286.58984375 C-190.83383881 288.76652375 -181.29938136 288.66700905 -172 289 C-172.495 290.98 -172.495 290.98 -173 293 C-200.51484067 293.85983877 -222.64185363 287.10140774 -244 269 C-245.20808776 267.99970334 -246.41637974 266.9996532 -247.625 266 C-248.40875 265.34 -249.1925 264.68 -250 264 C-254.79416314 267.51571964 -257.26230997 270.11116157 -259 276 C-259.29696632 279.36561828 -259.19190718 282.63096287 -259 286 C-259 287.299375 -259 288.59875 -259 289.9375 C-257.37552703 300.86976407 -244.84721889 311.40575659 -236.6484375 317.84765625 C-234.48048654 319.34530435 -232.2903349 320.69812543 -230 322 C-229.24460938 322.43828125 -228.48921875 322.8765625 -227.7109375 323.328125 C-210.69818187 332.52720459 -192.78272152 332.92643298 -174 331 C-173.67 332.32 -173.34 333.64 -173 335 C-195.19877301 339.82235464 -217.66734407 335.77167839 -237 324 C-240.56263457 321.54864594 -243.81379715 318.92019334 -247 316 C-247.96486328 315.13761719 -247.96486328 315.13761719 -248.94921875 314.2578125 C-252.94879225 310.49248734 -255.88277763 306.40881151 -258.73828125 301.72265625 C-259.15464844 301.15417969 -259.57101562 300.58570313 -260 300 C-260.66 300 -261.32 300 -262 300 C-265.43058813 308.46926445 -267.69313591 315.19735005 -264.02734375 323.96484375 C-255.27327781 341.30654852 -234.5473363 350.87133475 -217 357 C-188.98064179 365.61405945 -163.19594849 359.26271496 -137.4206543 347.16430664 C-131.06518269 344.26725509 -125.29514556 342.85990203 -118.40234375 341.71484375 C-108.38064411 339.60925129 -100.74041788 334.41743968 -95 326 C-89.53747053 317.5268719 -89.90787678 306.72079923 -91 297 C-91.86833893 293.57980788 -93.06677594 290.93363372 -95 288 C-95.804375 286.5459375 -95.804375 286.5459375 -96.625 285.0625 C-104.04615092 275.49312118 -112.74174693 269.12489103 -123 263 C-123.92167969 262.42121094 -124.84335938 261.84242188 -125.79296875 261.24609375 C-127.86784594 259.83611636 -127.86784594 259.83611636 -130 260 C-131.3025945 261.63000063 -131.3025945 261.63000063 -132.625 263.6875 C-136.67966367 269.28868576 -142.32734145 273.06844095 -149 275 C-152.3125 275.125 -152.3125 275.125 -155 275 C-155.33 273.68 -155.66 272.36 -156 271 C-154.0509375 270.690625 -154.0509375 270.690625 -152.0625 270.375 C-144.92072786 268.75544852 -139.14756707 265.1207571 -134.875 259.125 C-132.9177615 255.56269047 -132.51484775 252.95714644 -133.37109375 248.9921875 C-137.32468338 236.46839426 -146.74860441 228.16924348 -158 222 C-159.40910526 221.27923523 -160.82074168 220.56340541 -162.234375 219.8515625 C-172.78641933 214.52682095 -180.09584301 210.5482169 -184.4375 199 C-184.97680291 197.3392178 -185.50446273 195.67436195 -186 194 C-192.43063466 194 -200.08289939 202.24992819 -204.5625 206.3515625 Z M-83 320 C-83.21914062 320.61746094 -83.43828125 321.23492187 -83.6640625 321.87109375 C-86.03525426 328.20391078 -89.03640006 333.53023208 -93 339 C-90.03 339 -87.06 339 -84 339 C-81.29928888 332.72019113 -79.29975324 326.71539173 -78 320 C-79.65 320 -81.3 320 -83 320 Z M-71 320 C-72.98 326.27 -74.96 332.54 -77 339 C-72.05 339 -67.1 339 -62 339 C-61.32713788 336.58490559 -60.66153988 334.16819644 -60 331.75 C-59.71382812 330.72712891 -59.71382812 330.72712891 -59.421875 329.68359375 C-58.50042956 326.29399088 -58 323.54221024 -58 320 C-62.29 320 -66.58 320 -71 320 Z M-51 320 C-51.83488226 322.97874065 -52.66797766 325.95796055 -53.5 328.9375 C-53.73847656 329.78763672 -53.97695312 330.63777344 -54.22265625 331.51367188 C-54.44824219 332.32255859 -54.67382812 333.13144531 -54.90625 333.96484375 C-55.11572266 334.7137085 -55.32519531 335.46257324 -55.54101562 336.23413086 C-56.04192686 337.85721625 -56.04192686 337.85721625 -56 339 C-51.38 339 -46.76 339 -42 339 C-41.360625 336.97875 -40.72125 334.9575 -40.0625 332.875 C-39.70285156 331.73804688 -39.34320313 330.60109375 -38.97265625 329.4296875 C-37.82107611 325.61074292 -37.82107611 325.61074292 -37 320 C-41.62 320 -46.24 320 -51 320 Z M-30 320 C-32.61167012 326.29175074 -33.90667779 332.27186329 -35 339 C-30.38 339 -25.76 339 -21 339 C-20.16338138 336.2092793 -19.33057263 333.41751988 -18.5 330.625 C-18.26152344 329.8309375 -18.02304687 329.036875 -17.77734375 328.21875 C-17.55175781 327.45820313 -17.32617188 326.69765625 -17.09375 325.9140625 C-16.88427734 325.2123291 -16.67480469 324.5105957 -16.45898438 323.78759766 C-15.91710213 321.98473622 -15.91710213 321.98473622 -16 320 C-20.62 320 -25.24 320 -30 320 Z M-10 322 C-10.67155349 324.26949102 -11.3373963 326.5403961 -12 328.8125 C-12.37125 330.07707031 -12.7425 331.34164063 -13.125 332.64453125 C-14.12616509 335.90587415 -14.12616509 335.90587415 -14 339 C-10.12532127 337.74334744 -7.89390296 336.68812681 -6 333 C-5.41666667 329.5 -5.41666667 329.5 -6 326 C-7.95437461 323.78993446 -7.95437461 323.78993446 -10 322 Z " fill="#000000" transform="translate(275,77)"/>
<path d="M0 0 C2.43989433 1.56290153 4.65132154 3.33336994 6.875 5.1875 C7.76856201 5.91126831 7.76856201 5.91126831 8.68017578 6.6496582 C9.88392863 7.62554745 11.08435526 8.60555532 12.28125 9.58984375 C14.79136575 11.64927963 17.33402969 13.66627362 19.875 15.6875 C21.25052331 16.79101468 22.62574984 17.89490022 24 19 C23.40571044 22.12151233 22.47912631 23.97084717 20.4453125 26.3984375 C19.91856934 27.03539551 19.39182617 27.67235352 18.84912109 28.32861328 C18.28016113 29.0039209 17.71120117 29.67922852 17.125 30.375 C15.93133703 31.81691859 14.73864467 33.25964118 13.546875 34.703125 C12.94810547 35.42564453 12.34933594 36.14816406 11.73242188 36.89257812 C9.23264762 39.93345346 6.79801517 43.02283313 4.375 46.125 C3.70500977 46.98061523 3.70500977 46.98061523 3.02148438 47.85351562 C1.67975777 49.56805193 0.33960951 51.28380919 -1 53 C-7.32794869 61.10681567 -13.7283129 69.14369248 -20.23388672 77.10888672 C-24.3940625 82.21741958 -28.41186608 87.4168633 -32.40625 92.65625 C-35.90238176 97.20122129 -39.55381662 101.62032798 -43.18359375 106.05859375 C-46.52606496 110.15607022 -49.79405501 114.29479942 -53 118.5 C-57.28120256 124.11560336 -61.7134281 129.59275315 -66.18359375 135.05859375 C-69.52606496 139.15607022 -72.79405501 143.29479942 -76 147.5 C-80.28120256 153.11560336 -84.7134281 158.59275315 -89.18359375 164.05859375 C-92.52606496 168.15607022 -95.79405501 172.29479942 -99 176.5 C-103.87864189 182.89573184 -108.93255279 189.14033504 -114.01953125 195.37109375 C-114.51864014 195.98629883 -115.01774902 196.60150391 -115.53198242 197.23535156 C-116.48791522 198.38444225 -117.46914673 199.5130929 -118.4777832 200.61621094 C-121.44678403 203.90232026 -122.5689996 205.94227434 -122.5625 210.375 C-122.87472803 216.42236386 -124.21486652 221.07299645 -128.45703125 225.53125 C-134.41738393 230.72203816 -138.95700755 231.49544815 -146.72265625 231.390625 C-151.35985744 230.83791926 -154.59958632 229.16836446 -158 226 C-158.66 225.01 -159.32 224.02 -160 223 C-164.6344475 224.84984316 -165.79030826 227.59632169 -167.83203125 231.96875 C-170.8938672 239.91518713 -172.0356706 248.03479392 -172.4375 256.5 C-172.74964808 261.95953114 -173.09367139 265.09367139 -177 269 C-180.0774905 270.91303463 -181.85809708 271.00253398 -185.5 270.9375 C-189.8779229 269.76484208 -191.3153127 268.65415771 -194 265 C-196.83998202 258.06724526 -197.54975911 251.30548339 -197.5 243.875 C-197.49427979 242.87235107 -197.48855957 241.86970215 -197.48266602 240.83666992 C-197.15047611 226.85673184 -192.90028909 212.20298216 -182.9609375 201.8828125 C-181.7386826 200.74820935 -180.484559 199.64592592 -179.1875 198.59765625 C-177.7400428 197.03133039 -177.7400428 197.03133039 -178.25732422 194.78540039 C-179.10461777 191.60763176 -180.31217357 188.82065313 -181.6953125 185.8359375 C-182.51696899 184.04373779 -182.51696899 184.04373779 -183.35522461 182.21533203 C-183.64444794 181.58870667 -183.93367126 180.9620813 -184.23165894 180.31646729 C-203.51713158 138.40401557 -217.57389182 91.15062223 -201.51171875 45.76171875 C-195.95636172 31.4802762 -187.11618536 11.44995932 -174.15234375 2.76171875 C-170.37307011 1.35848048 -166.84609666 2.112077 -163.23828125 3.6953125 C-155.31975128 8.31100013 -148.60133599 14.79601546 -143 22 C-142.319375 22.86625 -141.63875 23.7325 -140.9375 24.625 C-139.58832708 28.04290474 -140.64577503 29.62046527 -142 33 C-143.3303245 35.35980798 -144.68648817 37.64713371 -146.125 39.9375 C-159.7251867 62.16740158 -167.39014864 83.99356579 -161.97607422 110.50708008 C-159.08760847 122.21943837 -152.99427184 132.42897949 -147.1796875 142.87109375 C-146.84284439 143.47629349 -146.50600128 144.08149323 -146.15895081 144.70503235 C-144.4551661 147.76289947 -142.7436346 150.81593105 -141.01635742 153.8605957 C-140.38318604 154.98425537 -139.75001465 156.10791504 -139.09765625 157.265625 C-138.23926147 158.77817871 -138.23926147 158.77817871 -137.36352539 160.32128906 C-136.20129281 162.60455064 -135.46682739 164.49884672 -135 167 C-131.87032067 164.72386958 -131.08814009 161.87424871 -130.2890625 158.18359375 C-129.61960818 153.12649962 -130.32498206 149.1925317 -132.875 144.6875 C-134.50150532 142.63044915 -136.055332 140.7502012 -138 139 C-136.44385655 133.96428115 -133.39269704 130.52437689 -130.0625 126.5625 C-128.87663927 125.1284015 -127.69175944 123.69349138 -126.5078125 122.2578125 C-125.91516602 121.54141602 -125.32251953 120.82501953 -124.71191406 120.08691406 C-122.23999376 117.07351207 -119.83410432 114.01091701 -117.4375 110.9375 C-113.65633907 106.0994031 -109.84248698 101.28954411 -106 96.5 C-102.12229019 91.66409162 -98.26442083 86.81371579 -94.4375 81.9375 C-93.98616699 81.36241699 -93.53483398 80.78733398 -93.06982422 80.19482422 C-90.81823665 77.32366687 -88.57010429 74.4498378 -86.32421875 71.57421875 C-81.42461222 65.30926469 -76.46857073 59.09752977 -71.4375 52.9375 C-67.53321016 48.15607265 -63.68127389 43.34575067 -59.9375 38.4375 C-55.32417294 32.39141608 -50.5941851 26.44648062 -45.82421875 20.5234375 C-44.09662617 18.37680691 -42.39443337 16.21802469 -40.70703125 14.0390625 C-30.2463373 0.56358442 -16.94129816 -8.09733185 0 0 Z M-32.55981445 18.88989258 C-34.08423212 20.86838136 -35.57814315 22.86629462 -37.0625 24.875 C-41.63080358 30.95715202 -46.32159378 36.90320891 -51.1875 42.75 C-56.09956095 48.65870127 -60.85928627 54.64731077 -65.51171875 60.76171875 C-68.26413643 64.3654682 -71.09774671 67.90240779 -73.9375 71.4375 C-77.83727676 76.29339122 -81.71824631 81.16250276 -85.5625 86.0625 C-86.01375244 86.63750244 -86.46500488 87.21250488 -86.92993164 87.80493164 C-89.18164366 90.6761367 -91.42982535 93.55007211 -93.67578125 96.42578125 C-98.03328773 101.9975711 -102.42069855 107.53966463 -106.89477539 113.01855469 C-108.54231769 115.03776477 -110.18182311 117.06328458 -111.8203125 119.08984375 C-113.89074386 121.64910939 -115.99119157 124.17818983 -118.1171875 126.69140625 C-119.05797934 127.83537231 -119.99811971 128.97987455 -120.9375 130.125 C-121.77152344 131.11757813 -122.60554688 132.11015625 -123.46484375 133.1328125 C-125.35057985 135.91827982 -125.35057985 135.91827982 -124.37890625 138.9921875 C-123.92386719 139.98476563 -123.46882813 140.97734375 -123 142 C-119.64218376 151.09706244 -119.84896187 160.00114658 -123.83984375 168.85546875 C-125 171 -125 171 -127.3125 174.25 C-129.25717135 176.86201141 -129.25717135 176.86201141 -128.9375 179.8125 C-127.73112381 183.91417904 -126.42432623 187.96888802 -125 192 C-121.4053807 188.48927666 -118.0480163 184.84635643 -114.8125 181 C-114.33474121 180.43385986 -113.85698242 179.86771973 -113.36474609 179.28442383 C-109.75600389 174.97527328 -106.30875552 170.5657873 -102.91137695 166.08789062 C-99.53241789 161.64874927 -96.03291973 157.31727106 -92.5 153 C-88.59079703 148.22038413 -84.74367506 143.41053482 -81 138.5 C-76.71879744 132.88439664 -72.2865719 127.40724685 -67.81640625 121.94140625 C-63.63261611 116.81257175 -59.59481671 111.59206974 -55.58203125 106.328125 C-52.69352598 102.57295545 -49.69004287 98.91414272 -46.6875 95.25 C-42.1984943 89.76944421 -37.83626783 84.21234571 -33.5625 78.5625 C-28.54447915 71.93268538 -23.33696967 65.48955159 -18.02197266 59.09619141 C-13.74499432 53.94016921 -9.64258892 48.68537555 -5.59375 43.34765625 C-1.92564658 38.55955469 1.9385071 33.92420953 5.79907227 29.29077148 C6.33072998 28.64567627 6.8623877 28.00058105 7.41015625 27.3359375 C8.12377319 26.47814697 8.12377319 26.47814697 8.85180664 25.60302734 C10.20297725 23.88329735 10.20297725 23.88329735 11 21 C9.7391988 19.96680187 8.46596742 18.94875621 7.1875 17.9375 C6.47980469 17.36902344 5.77210938 16.80054688 5.04296875 16.21484375 C4.36878906 15.81394531 3.69460938 15.41304687 3 15 C-0.99000232 16.33000077 -2.55541081 18.95016422 -5 22.1875 C-5.99205826 23.47535999 -6.98424933 24.76311767 -7.9765625 26.05078125 C-8.4809082 26.71029785 -8.98525391 27.36981445 -9.50488281 28.04931641 C-11.77296841 31.00849405 -14.0717624 33.94314676 -16.375 36.875 C-16.82222412 37.44557129 -17.26944824 38.01614258 -17.73022461 38.60400391 C-21.83436469 43.82455703 -26.0333219 48.96586388 -30.23388672 54.10888672 C-34.39817906 59.22247456 -38.41983168 64.42714592 -42.41796875 69.671875 C-45.30647402 73.42704455 -48.30995713 77.08585728 -51.3125 80.75 C-55.80150292 86.2305524 -60.16382312 91.78758735 -64.4375 97.4375 C-69.50975499 104.14095136 -74.76257415 110.66919115 -80.15600586 117.11694336 C-83.92614205 121.63564847 -87.51334881 126.25906715 -91 131 C-93.97 130.01 -93.97 130.01 -97 129 C-91.92518074 121.76339973 -86.52220023 114.87825524 -80.92114258 108.046875 C-77.54012194 103.91619426 -74.23475237 99.74627102 -71 95.5 C-66.71879744 89.88439664 -62.2865719 84.40724685 -57.81640625 78.94140625 C-53.63261611 73.81257175 -49.59481671 68.59206974 -45.58203125 63.328125 C-42.69352456 59.5729536 -39.68999586 55.91418333 -36.6875 52.25 C-31.62149059 46.06350851 -26.72634046 39.767398 -21.90429688 33.3894043 C-17.40780499 27.46687822 -12.73398749 21.70174297 -7.9609375 16 C-5.0278969 12.90858713 -5.0278969 12.90858713 -4 9 C-15.52717593 2.33336139 -25.29363921 10.08609503 -32.55981445 18.88989258 Z M-170 12 C-171.62562751 13.7946436 -173.09912948 15.57806048 -174.5625 17.5 C-175.00360107 18.07878906 -175.44470215 18.65757812 -175.89916992 19.25390625 C-195.08832526 45.09086795 -202.41405785 76.21291357 -197.8125 107.9375 C-196.24230592 117.81723361 -193.89019327 127.42847718 -191 137 C-190.77924805 137.74024414 -190.55849609 138.48048828 -190.33105469 139.24316406 C-183.91976287 160.21973686 -173.98075498 180.51153929 -164 200 C-164.6202002 200.30091553 -165.24040039 200.60183105 -165.87939453 200.91186523 C-176.48100743 206.35181327 -182.39137771 217.10473654 -186 228 C-189.48657555 238.85592841 -189.10328566 250.39984538 -185 261 C-184.34 261 -183.68 261 -183 261 C-182.25625001 258.27406269 -181.81942518 255.69052378 -181.60546875 252.875 C-180.42905674 238.92734448 -178.78020548 224.52001998 -167.49609375 214.85546875 C-165.0399635 213.04286608 -162.73968081 211.34862085 -160 210 C-156.53465077 211.15511641 -156.11047875 211.9450773 -154.125 214.875 C-150.83386997 219.375283 -150.83386997 219.375283 -146 222 C-142.35534419 222.29752292 -139.30101817 222.07086263 -136.41015625 219.69140625 C-131.61113034 214.11340802 -131.48328582 209.00434781 -132 202 C-135.32658204 181.81497676 -146.59336179 163.2115486 -156.75 145.80419922 C-163.5127163 134.20825411 -169.99312672 122.47472062 -172 109 C-172.10957031 108.32324219 -172.21914063 107.64648438 -172.33203125 106.94921875 C-176.47483514 76.73436907 -166.05444832 53.26324608 -151 28 C-158.62877818 19.03053212 -158.62877818 19.03053212 -168 12 C-168.66 12 -169.32 12 -170 12 Z " fill="#000000" transform="translate(488,189)"/>
<path d="M0 0 C2.8100346 1.79363911 4.50940468 3.01880935 6 6 C6.43867925 13.89622642 6.43867925 13.89622642 4 17 C0.7907253 19.11520378 -1.19959535 20.01633479 -5.0625 19.9375 C-8.58893551 18.81204186 -10.48394769 17.73171394 -13 15 C-14.22575053 10.86309196 -14.27765284 8.73578003 -12.75 4.6875 C-9.50424711 -0.29704908 -5.61118394 -0.91879035 0 0 Z M-4 5 C-5.32 5.99 -6.64 6.98 -8 8 C-7.80528889 9.94999129 -7.80528889 9.94999129 -7 12 C-5.0162233 13.28436734 -5.0162233 13.28436734 -3 14 C-2.01 13.34 -1.02 12.68 0 12 C0.25030977 9.41619823 0.25030977 9.41619823 0 7 C-1.32 6.34 -2.64 5.68 -4 5 Z " fill="#000000" transform="translate(345,383)"/>
</svg>
